<?xml version="1.0" encoding="UTF-8"?>
<svg version="1.1" xmlns="http://www.w3.org/2000/svg" width="100" height="100">
<path d="M0 0 C17.82 0.33 35.64 0.66 54 1 C54 1.99 54 2.98 54 4 C53.10539062 4.09796875 52.21078125 4.1959375 51.2890625 4.296875 C36.61073976 6.11210468 24.79216903 10.53277689 15.375 22.4375 C10.8673695 28.81607345 7.42550754 35.57006727 4.11376953 42.62841797 C2.84847275 45.32265139 1.5636855 48.00715915 0.27734375 50.69140625 C-2.16196568 55.78790435 -4.58585078 60.89154104 -7 66 C-6.05898438 65.68289062 -5.11796875 65.36578125 -4.1484375 65.0390625 C-1.76748009 64.25328747 0.56087366 63.56287531 3 63 C3 64.32 3 65.64 3 67 C2.38253906 67.18175781 1.76507813 67.36351563 1.12890625 67.55078125 C-4.62042737 69.25720447 -10.32305366 71.06654726 -16 73 C-16 72.01 -16 71.02 -16 70 C-14.515 69.505 -14.515 69.505 -13 69 C-11.93946157 67.29564718 -11.93946157 67.29564718 -11 65 C-10.46246094 63.93652344 -9.92492187 62.87304688 -9.37109375 61.77734375 C-8.72622902 60.49756382 -8.08172018 59.21760451 -7.4375 57.9375 C-7.08816406 57.24503174 -6.73882812 56.55256348 -6.37890625 55.83911133 C-4.4345452 51.95857691 -2.55281961 48.05962271 -0.75390625 44.109375 C3.42449378 34.95694813 7.60333437 26.83236169 14 19 C14.62261719 18.13568359 14.62261719 18.13568359 15.2578125 17.25390625 C19.69047539 11.28686005 26.4505147 7.27474265 33 4 C22.11 4 11.22 4 0 4 C0 2.68 0 1.36 0 0 Z " fill="#000000" transform="translate(31,13)"/>
</svg>
