<?xml version="1.0" encoding="UTF-8"?>
<svg version="1.1" xmlns="http://www.w3.org/2000/svg" width="100" height="100">
<path d="M0 0 C10.23 0.33 20.46 0.66 31 1 C31 1.99 31 2.98 31 4 C29.081875 4.309375 29.081875 4.309375 27.125 4.625 C16.84450883 6.95781881 9.41110899 13.87975086 2 21 C1.20980469 21.72703125 0.41960938 22.4540625 -0.39453125 23.203125 C-11.52458039 33.77577265 -20.16962096 46.55809556 -28.6875 59.25 C-29.28788086 60.14307861 -29.88826172 61.03615723 -30.50683594 61.95629883 C-31.06532227 62.80087646 -31.62380859 63.6454541 -32.19921875 64.515625 C-32.69252686 65.26102539 -33.18583496 66.00642578 -33.6940918 66.77441406 C-35.06708191 69.11432393 -36.05604205 71.4600575 -37 74 C-38.32 74 -39.64 74 -41 74 C-41 72.68 -41 71.36 -41 70 C-40.34 70 -39.68 70 -39 70 C-38.7421875 69.28714844 -38.484375 68.57429688 -38.21875 67.83984375 C-35.90933801 62.45861774 -32.32048587 57.79977403 -29 53 C-28.61247559 52.43539062 -28.22495117 51.87078125 -27.82568359 51.2890625 C-22.08556723 42.95351775 -15.96029204 35.08910911 -9.28759766 27.47998047 C-8.09389522 26.10792431 -6.92658562 24.71302673 -5.76171875 23.31640625 C0.8267741 15.59570439 8.5808189 9.6127874 17 4 C11.39 4 5.78 4 0 4 C-0.495 3.01 -0.495 3.01 -1 2 C-0.67 1.34 -0.34 0.68 0 0 Z " fill="#000000" transform="translate(54,13)"/>
</svg>
