<?xml version="1.0" encoding="UTF-8"?>
<svg version="1.1" xmlns="http://www.w3.org/2000/svg" width="100" height="100">
<path d="M0 0 C10.23 0.33 20.46 0.66 31 1 C31 1.99 31 2.98 31 4 C30.05640625 4.20302734 30.05640625 4.20302734 29.09375 4.41015625 C28.2378125 4.62542969 27.381875 4.84070313 26.5 5.0625 C25.24703125 5.35833984 25.24703125 5.35833984 23.96875 5.66015625 C16.48380608 9.03822962 11.62432725 15.29113622 7.3125 22.0625 C6.81194092 22.82763916 6.31138184 23.59277832 5.7956543 24.38110352 C1.76510658 30.61569125 -1.96250979 37.01751101 -5.6875 43.4375 C-11.73487738 53.84428188 -17.6621757 62.21847975 -27 70 C-20.73 70 -14.46 70 -8 70 C-7.505 70.99 -7.505 70.99 -7 72 C-7.33 72.66 -7.66 73.32 -8 74 C-18.23 73.67 -28.46 73.34 -39 73 C-39 72.01 -39 71.02 -39 70 C-38.3709375 69.86464844 -37.741875 69.72929688 -37.09375 69.58984375 C-36.2378125 69.37457031 -35.381875 69.15929687 -34.5 68.9375 C-33.6646875 68.74027344 -32.829375 68.54304688 -31.96875 68.33984375 C-24.48380608 64.96177038 -19.62432725 58.70886378 -15.3125 51.9375 C-14.81194092 51.17236084 -14.31138184 50.40722168 -13.7956543 49.61889648 C-9.76510658 43.38430875 -6.03749021 36.98248899 -2.3125 30.5625 C3.73487738 20.15571812 9.6621757 11.78152025 19 4 C12.73 4 6.46 4 0 4 C-0.495 3.01 -0.495 3.01 -1 2 C-0.67 1.34 -0.34 0.68 0 0 Z " fill="#000000" transform="translate(54,13)"/>
</svg>
