<?xml version="1.0" encoding="UTF-8"?>
<svg version="1.1" xmlns="http://www.w3.org/2000/svg" width="100" height="100">
<path d="M0 0 C1.32 0 2.64 0 4 0 C4 1.32 4 2.64 4 4 C3.34 4 2.68 4 2 4 C1.7421875 4.71285156 1.484375 5.42570312 1.21875 6.16015625 C-1.09066199 11.54138226 -4.67951413 16.20022597 -8 21 C-8.38752441 21.56460938 -8.77504883 22.12921875 -9.17431641 22.7109375 C-14.91443277 31.04648225 -21.03970796 38.91089089 -27.71240234 46.52001953 C-28.90610478 47.89207569 -30.07341438 49.28697327 -31.23828125 50.68359375 C-37.8267741 58.40429561 -45.5808189 64.3872126 -54 70 C-48.39 70 -42.78 70 -37 70 C-36.505 70.99 -36.505 70.99 -36 72 C-36.33 72.66 -36.66 73.32 -37 74 C-47.23 73.67 -57.46 73.34 -68 73 C-68 72.01 -68 71.02 -68 70 C-66.081875 69.690625 -66.081875 69.690625 -64.125 69.375 C-53.84450883 67.04218119 -46.41110899 60.12024914 -39 53 C-38.20980469 52.27296875 -37.41960938 51.5459375 -36.60546875 50.796875 C-25.47541961 40.22422735 -16.83037904 27.44190444 -8.3125 14.75 C-7.41192871 13.41038208 -7.41192871 13.41038208 -6.49316406 12.04370117 C-5.93467773 11.19912354 -5.37619141 10.3545459 -4.80078125 9.484375 C-4.30747314 8.73897461 -3.81416504 7.99357422 -3.3059082 7.22558594 C-1.93291809 4.88567607 -0.94395795 2.5399425 0 0 Z " fill="#000000" transform="translate(83,13)"/>
</svg>
