<?xml version="1.0" encoding="UTF-8"?>
<svg version="1.1" xmlns="http://www.w3.org/2000/svg" width="100" height="100">
<path d="M0 0 C1.32 0 2.64 0 4 0 C4 4 4 4 2.74534607 5.43119812 C2.12998489 5.90853897 1.51462372 6.38587982 0.88061523 6.87768555 C-3.12247603 10.18741249 -6.82034476 13.6959191 -10.49194336 17.36254883 C-11.09049417 17.95903575 -11.68904497 18.55552267 -12.30573368 19.17008495 C-14.23594626 21.09690335 -16.16302516 23.02681931 -18.08984375 24.95703125 C-19.44350341 26.31001637 -20.79731141 27.66285309 -22.15126038 29.01554871 C-24.97266532 31.83548677 -27.79227194 34.65720723 -30.6105957 37.48022461 C-34.22765287 41.10301144 -37.84922551 44.72124598 -41.47212887 48.33818531 C-44.26108729 51.12353877 -47.04767029 53.91125884 -49.83352852 56.69971275 C-51.16888548 58.03573747 -52.50498753 59.37101789 -53.84184074 60.70554543 C-55.70159213 62.56276784 -57.55812608 64.42314686 -59.41381836 66.28442383 C-59.96804977 66.83663101 -60.52228119 67.3888382 -61.0933075 67.95777893 C-63.89344064 70.71692083 -63.89344064 70.71692083 -66 74 C-67.32 74 -68.64 74 -70 74 C-70 70 -70 70 -68.74534607 68.56880188 C-67.82230431 67.8527906 -67.82230431 67.8527906 -66.88061523 67.12231445 C-62.87752397 63.81258751 -59.17965524 60.3040809 -55.50805664 56.63745117 C-54.90950583 56.04096425 -54.31095503 55.44447733 -53.69426632 54.82991505 C-51.76405374 52.90309665 -49.83697484 50.97318069 -47.91015625 49.04296875 C-46.55649659 47.68998363 -45.20268859 46.33714691 -43.84873962 44.98445129 C-41.02733468 42.16451323 -38.20772806 39.34279277 -35.3894043 36.51977539 C-31.77234713 32.89698856 -28.15077449 29.27875402 -24.52787113 25.66181469 C-21.73891271 22.87646123 -18.95232971 20.08874116 -16.16647148 17.30028725 C-14.83111452 15.96426253 -13.49501247 14.62898211 -12.15815926 13.29445457 C-10.29840787 11.43723216 -8.44187392 9.57685314 -6.58618164 7.71557617 C-6.03195023 7.16336899 -5.47771881 6.6111618 -4.9066925 6.04222107 C-2.10655936 3.28307917 -2.10655936 3.28307917 0 0 Z " fill="#000000" transform="translate(83,13)"/>
</svg>
